<svg xmlns="http://www.w3.org/2000/svg" width="811.752" height="312.076" viewBox="0 0 811.752 312.076">
  <g id="Group_588" data-name="Group 588" transform="translate(-191.928 -245.039)">
    <g id="Group_558" data-name="Group 558" transform="translate(191.928 247.507)">
      <path id="Path_11" data-name="Path 11" d="M470.861,545.276c16.888.627,25.172,12.879,18.074,30.338-7.144,17.571-21.811,29.709-39.7,36.632-8.194,3.172-20.828,3.873-27.6-1.129-9.256-6.841-6.786-20.4-2.259-30.016,6.984-14.834,20.542-26.415,36.149-32.6A60.963,60.963,0,0,1,466.5,545.6Z" transform="translate(-303.325 -420.966)" fill="#020202" fill-rule="evenodd"/>
      <g id="Group_377" data-name="Group 377" transform="translate(226.881 0)">
        <path id="Path_7" data-name="Path 7" d="M759.769,259.831c21.3-.384,28.188,12.874,20.333,30.822-7.737,17.682-26.337,31.635-45.347,38.246-9.2,3.2-22.958,4.01-30.177-1.614-9.218-7.18-5.311-21.939-.323-30.338A79.074,79.074,0,0,1,741.7,264.511a75.591,75.591,0,0,1,12.264-3.873Z" transform="translate(-697.597 -252.518)" fill="#020202" fill-rule="evenodd"/>
        <path id="Path_7-2" data-name="Path 7" d="M760.347,259.831c21.507-.388,28.456,13,20.527,31.116-7.811,17.85-26.588,31.936-45.778,38.61-9.287,3.23-23.176,4.049-30.465-1.629-9.305-7.249-5.361-22.148-.326-30.627a79.829,79.829,0,0,1,37.8-32.745,76.318,76.318,0,0,1,12.381-3.91Z" transform="translate(-699.008 -259.823)" fill="#393939" fill-rule="evenodd"/>
      </g>
      <g id="Group_381" data-name="Group 381" transform="translate(132.346 33.091)">
        <path id="Path_8" data-name="Path 8" d="M518.408,343.3c18.256-.349,24.466,12.226,17.59,28.241-7.3,16.992-22.193,29.461-39.7,36.309-7.931,3.1-20.6,4.657-27.434-.645-8.507-6.6-5-19.911-.807-28.079,7.4-14.413,20.427-25.569,35.664-32.114l10.006-3.066Z" transform="translate(-461.319 -336.31)" fill="#020202" fill-rule="evenodd"/>
        <path id="Path_8-2" data-name="Path 8" d="M518.929,343.3c18.429-.352,24.7,12.343,17.757,28.509-7.365,17.154-22.4,29.741-40.076,36.655-8.007,3.132-20.8,4.7-27.7-.651-8.588-6.662-5.048-20.1-.815-28.347,7.47-14.55,20.621-25.812,36-32.419l10.1-3.1Z" transform="translate(-463.647 -343.29)" fill="#393939" fill-rule="evenodd"/>
      </g>
      <g id="Group_382" data-name="Group 382" transform="translate(42.82 65.166)">
        <path id="Path_9" data-name="Path 9" d="M304.279,417.314c16.179-.325,20.422,12.209,15.008,25.82C312.9,459.2,299.414,471.6,283.461,478.153c-6.455,2.65-17.6,4.84-23.884.322-8.261-5.936-5.571-18.717-1.453-26.788,6.9-13.529,18.434-24.97,32.76-30.984l8.553-2.743Z" transform="translate(-251.052 -410.617)" fill="#0c608b" fill-rule="evenodd"/>
        <path id="Path_9-2" data-name="Path 9" d="M304.755,417.314c16.333-.328,20.616,12.325,15.151,26.066-6.449,16.214-20.061,28.738-36.166,35.352-6.516,2.676-17.764,4.887-24.111.326-8.34-5.993-5.624-18.9-1.467-27.043,6.971-13.658,18.61-25.207,33.072-31.279l8.634-2.77Z" transform="translate(-254.197 -417.308)" fill="#0f88c7" fill-rule="evenodd"/>
      </g>
      <g id="Group_378" data-name="Group 378" transform="translate(208.129 88.135)">
        <path id="Path_10" data-name="Path 10" d="M714.791,472.823c19.239-.38,29.512,12.725,22.27,31.791-7.034,18.517-25.3,32.7-44.379,39.376-10.216,3.576-24.773,4-32.6-2.1-9.5-7.4-6.954-21.995-1.775-31.791,7.934-15.007,21.7-26.4,37.923-33.082a75.631,75.631,0,0,1,12.426-3.55Z" transform="translate(-652.102 -466.341)" fill="#907d2f" fill-rule="evenodd"/>
        <path id="Path_10-2" data-name="Path 10" d="M715.372,472.823c19.423-.384,29.793,12.845,22.482,32.093-7.1,18.693-25.545,33.008-44.8,39.75-10.313,3.61-25.009,4.037-32.908-2.118-9.589-7.471-7.02-22.2-1.792-32.093,8.009-15.15,21.91-26.656,38.284-33.4a76.324,76.324,0,0,1,12.544-3.584Z" transform="translate(-653.689 -472.815)" fill="#efcd42" fill-rule="evenodd"/>
      </g>
      <path id="Path_11-2" data-name="Path 11" d="M471.389,545.276c17.049.632,25.412,13,18.246,30.627-7.212,17.738-22.019,29.992-40.077,36.981-8.271,3.2-21.026,3.91-27.858-1.14-9.344-6.907-6.851-20.595-2.281-30.3,7.05-14.976,20.737-26.666,36.492-32.908a61.544,61.544,0,0,1,11.078-2.932Z" transform="translate(-305.841 -427.157)" fill="#393939" fill-rule="evenodd"/>
      <g id="Group_383" data-name="Group 383" transform="translate(21.885 144.668)">
        <path id="Path_12" data-name="Path 12" d="M253.445,609.442c16.136-.295,21.893,13.3,16.138,27.918-6.423,16.311-19.288,28.445-35.5,35.019-7.036,2.852-18.193,4.3-24.529-.323-8.789-6.41-6.312-19.071-2.259-28.241,6.121-13.849,18.374-25.269,32.437-31.145l9.2-2.743Z" transform="translate(-200.262 -603.496)" fill="#0c608b" fill-rule="evenodd"/>
        <path id="Path_12-2" data-name="Path 12" d="M253.919,609.442c16.29-.3,22.1,13.428,16.291,28.183-6.484,16.466-19.472,28.716-35.841,35.352-7.1,2.879-18.366,4.339-24.763-.326-8.873-6.472-6.372-19.252-2.281-28.51,6.179-13.98,18.549-25.509,32.745-31.442l9.286-2.77Z" transform="translate(-203.604 -609.438)" fill="#0f88c7" fill-rule="evenodd"/>
      </g>
      <g id="Group_379" data-name="Group 379" transform="translate(188.363 181.158)">
        <path id="Path_13" data-name="Path 13" d="M663.527,697.628c23.5-.378,36.15,14.213,26.627,36.471-7.786,18.2-23.52,30.8-42.926,37.439-9.868,3.376-24.393,3.461-32.275-1.775-10.54-7-11.289-22.384-5.164-34.7,7.784-15.646,21.642-27.234,38.407-33.889l9.521-2.744Z" transform="translate(-604.149 -692.023)" fill="#907d2f" fill-rule="evenodd"/>
        <path id="Path_13-2" data-name="Path 13" d="M664.075,697.628c23.728-.382,36.494,14.349,26.88,36.818-7.86,18.372-23.744,31.093-43.334,37.8-9.962,3.408-24.625,3.494-32.582-1.792-10.641-7.068-11.4-22.6-5.214-35.026,7.858-15.795,21.848-27.493,38.773-34.211l9.612-2.77Z" transform="translate(-605.922 -697.62)" fill="#efcd42" fill-rule="evenodd"/>
      </g>
      <g id="Group_380" data-name="Group 380" transform="translate(88.431 205.927)">
        <path id="Path_14" data-name="Path 14" d="M418.7,757.48l5.164.323a25.354,25.354,0,0,1,10.973,4.68c6.6,5.218,8.279,17.9,4.519,27.6-6.506,16.78-19.944,29.388-36.471,36.148-9.1,3.723-23.151,4.771-30.984-.807-9.286-6.613-9.135-21.186-3.873-31.952a65.971,65.971,0,0,1,36.149-33.082l9.2-2.421Z" transform="translate(-361.707 -752.116)" fill="#020202" fill-rule="evenodd"/>
        <path id="Path_14-2" data-name="Path 14" d="M419.22,757.48l5.214.326a25.59,25.59,0,0,1,11.078,4.724c6.667,5.268,8.358,18.067,4.562,27.858-6.568,16.939-20.134,29.667-36.818,36.492-9.188,3.759-23.371,4.817-31.279-.815-9.374-6.675-9.222-21.387-3.91-32.256a66.6,66.6,0,0,1,36.492-33.4l9.286-2.444Z" transform="translate(-364.422 -757.48)" fill="#393939" fill-rule="evenodd"/>
      </g>
      <g id="Group_384" data-name="Group 384" transform="translate(0 227.92)">
        <path id="Path_15" data-name="Path 15" d="M199.643,810.629c16.138-.09,23.447,12.632,18.4,28.725-5.333,16.993-18.743,29.834-34.7,36.309-6.95,2.821-18.55,4.417-25.175,0-9.24-6.16-8.885-19.264-4.357-30.016a60.47,60.47,0,0,1,33.082-32.275l9.037-2.421Z" transform="translate(-147.168 -805.472)" fill="#0c608b" fill-rule="evenodd"/>
        <path id="Path_15-2" data-name="Path 15" d="M200.108,810.629c16.292-.09,23.67,12.752,18.572,29-5.383,17.155-18.921,30.118-35.026,36.655-7.016,2.848-18.726,4.459-25.414,0-9.327-6.218-8.97-19.447-4.4-30.3a61.045,61.045,0,0,1,33.4-32.582l9.123-2.444Z" transform="translate(-150.716 -810.629)" fill="#0f88c7" fill-rule="evenodd"/>
      </g>
    </g>
    <g id="Group_587" data-name="Group 587">
      <path id="Path_23" data-name="Path 23" d="M5.13-57.96H32.94q9.72,0,14.535,5.13T52.29-38.52a16.91,16.91,0,0,1-3.015,10.08,16.815,16.815,0,0,1-8.505,6.12,12,12,0,0,1,2.2,2.475A23.747,23.747,0,0,1,44.82-16.2L51.84,0H39.24L32.4-15.57a6.452,6.452,0,0,0-2.025-2.835,6.449,6.449,0,0,0-3.555-.765H17.28V0H5.13ZM29.79-29.25q4.95,0,7.56-2.205t2.61-7.065q0-4.86-2.34-7.11t-7.11-2.25H17.28v18.63ZM77.04-57.96H90.36L112.41,0H99.81L94.32-13.95H72.99L67.59,0H54.9ZM92.52-23.31,83.61-46.62,74.79-23.31ZM127.08.9a37.652,37.652,0,0,1-12.96-2.07V-11.43a25.963,25.963,0,0,0,10.53,1.98q5.58,0,7.965-2.3T135-19.26v-38.7h12.15v41.4Q147.15.9,127.08.9Zm47.97-58.86h13.32L210.42,0h-12.6l-5.49-13.95H171L165.6,0H152.91Zm15.48,34.65-8.91-23.31L172.8-23.31ZM23.13,83.9q-11.61,0-18.72-3.15V70.04a53.723,53.723,0,0,0,8.64,2.61,42.217,42.217,0,0,0,8.91.99q6.75,0,9.495-1.26T34.2,67.16a6.316,6.316,0,0,0-1.26-4.14,9.972,9.972,0,0,0-4.14-2.655q-2.88-1.125-9-2.835-9.09-2.52-12.78-6.3T3.33,40.79q0-8.01,5.85-12.33t17.01-4.32a65.247,65.247,0,0,1,9.585.675A37.176,37.176,0,0,1,43.2,26.57V37.28a43.161,43.161,0,0,0-15.39-2.79q-6.12,0-9.135,1.35a4.949,4.949,0,0,0-3.015,4.95,5.443,5.443,0,0,0,1.125,3.6,9.218,9.218,0,0,0,3.78,2.385A79.143,79.143,0,0,0,28.8,49.25q10.08,2.7,13.95,6.975A15.67,15.67,0,0,1,46.62,67.16a14.507,14.507,0,0,1-5.94,12.285Q34.74,83.9,23.13,83.9Zm58.32,0q-28.17,0-28.17-29.61,0-15.66,6.975-22.9T81.45,24.14q14.22,0,21.2,7.245t6.975,22.9Q109.62,83.9,81.45,83.9Zm0-10.35q8.1,0,11.97-4.725T97.29,54.29q0-10.71-3.78-15.255T81.45,34.49q-8.28,0-12.06,4.545T65.61,54.29q0,9.81,3.87,14.535T81.45,73.55Zm36.63-48.51h40.77v9.45H130.23V49.34h25.29V58.7H130.23V83H118.08Zm61.65,9.36H161.91V25.04h47.7V34.4H191.88V83H179.73Zm33.39-9.36h11.97l8.73,39.15,9.45-31.59V25.04h9.9l11.16,39.24,9-39.24h11.88L271.8,83H260.28L249.66,45.92,238.23,83H226.62Zm91.44,0h13.32L339.93,83h-12.6l-5.49-13.95H300.51L295.11,83H282.42Zm15.48,34.65-8.91-23.31-8.82,23.31Zm28.35-34.65H376.2q9.72,0,14.535,5.13t4.815,14.31a16.286,16.286,0,0,1-11.52,16.2,12,12,0,0,1,2.205,2.475A23.749,23.749,0,0,1,388.08,66.8L395.1,83H382.5l-6.84-15.57a4.932,4.932,0,0,0-5.58-3.6h-9.54V83H348.39Zm24.66,28.71q4.95,0,7.56-2.205t2.61-7.065q0-4.86-2.34-7.11t-7.11-2.25H360.54V53.75Zm30.96-28.71h41.58v9.45H416.16V49.34h26.1V58.7h-26.1V73.64h29.43V83H404.01Zm-398.88,83H17.28v48.6H45.81V166H5.13Zm66.33,0H84.78L106.83,166H94.23l-5.49-13.95H67.41L62.01,166H49.32Zm15.48,34.65-8.91-23.31-8.82,23.31Zm28.35-34.65h29.34q8.64,0,12.96,4.05t4.32,11.61a15.767,15.767,0,0,1-1.755,7.7,12.068,12.068,0,0,1-4.9,4.9,12.571,12.571,0,0,1,6.57,4.365q2.25,3.015,2.25,8.415,0,8.37-4.725,12.645T145.71,166H115.29Zm27.09,24.03q8.19,0,8.19-7.38,0-3.96-2.025-5.805t-7.065-1.845H127.44v15.03Zm.45,25.02q4.68,0,6.795-1.935t2.115-6.615q0-3.96-2.205-5.8t-7.515-1.845H127.44v16.2Zm43.65,9.81q-11.61,0-18.72-3.15V153.04a53.722,53.722,0,0,0,8.64,2.61,42.216,42.216,0,0,0,8.91.99q6.75,0,9.495-1.26t2.745-5.22a6.316,6.316,0,0,0-1.26-4.14,9.972,9.972,0,0,0-4.14-2.655q-2.88-1.125-9-2.835-9.09-2.52-12.78-6.3t-3.69-10.44q0-8.01,5.85-12.33t17.01-4.32a65.246,65.246,0,0,1,9.585.675,37.176,37.176,0,0,1,7.425,1.755v10.71a43.161,43.161,0,0,0-15.39-2.79q-6.12,0-9.135,1.35a4.949,4.949,0,0,0-3.015,4.95,5.443,5.443,0,0,0,1.125,3.6,9.218,9.218,0,0,0,3.78,2.385,79.144,79.144,0,0,0,8.235,2.475q10.08,2.7,13.95,6.975a15.67,15.67,0,0,1,3.87,10.935,14.506,14.506,0,0,1-5.94,12.285Q198.09,166.9,186.48,166.9Z" transform="translate(558.09 303)" fill="#393939"/>
      <path id="Path_24" data-name="Path 24" d="M4.876,20.7a1.36,1.36,0,0,1-1.2-.828,2.62,2.62,0,0,1-.46-1.564,24.323,24.323,0,0,1,.46-3.128A25.493,25.493,0,0,0,4.692,9.844,7.041,7.041,0,0,1,4.876,8.51q.184-.874.276-1.61a7.954,7.954,0,0,0,.69-1.978,10.162,10.162,0,0,0,.322-2.346,2.293,2.293,0,0,1,.322-1.058A3.093,3.093,0,0,1,7.268.552a8.151,8.151,0,0,1,.276-1.7q.276-1.15.368-1.61A121.812,121.812,0,0,1,11.5-14.536q3.128-9.292,5.336-15a25.03,25.03,0,0,0,1.472-4.232,14,14,0,0,0,.46-3.036,1.165,1.165,0,0,1,.23-.69,7.737,7.737,0,0,1,.782-.874,1.8,1.8,0,0,1,1.2-.644,1.866,1.866,0,0,1,1.012.368,12.941,12.941,0,0,1,1.1.828,10.285,10.285,0,0,1,.874,1.564,3.859,3.859,0,0,1,.322,1.564q0,.276-.184,1.748a5.612,5.612,0,0,1-.828,3.174q-.828,1.242-.644,1.15a17.768,17.768,0,0,1,7.36-1.932,7.565,7.565,0,0,1,6.026,2.484,9.455,9.455,0,0,1,2.162,6.44,10.875,10.875,0,0,1-.966,4,9.06,9.06,0,0,1-1.886,3.174q-.552,0-1.472,1.932A14.608,14.608,0,0,1,29.9-9.43q-2.76,1.61-3.864,1.242a.706.706,0,0,0-.276.092q-.184.092-.184.46t-3.128,1.38A17.5,17.5,0,0,1,17.3-5.244a7.356,7.356,0,0,1-1.656-.138,2.809,2.809,0,0,1-1.1-.6,1.8,1.8,0,0,0-.644,1.2,13.872,13.872,0,0,1-.92,3.68q-.92,2.668-1.472,2.668a1.548,1.548,0,0,0-.23.368q-.138.276.23.644,0,.276-.092,1.288a3.376,3.376,0,0,1-.46,1.564,12.592,12.592,0,0,1-.276,2.254,8.784,8.784,0,0,1-.644,2.162,7.385,7.385,0,0,1-.322,2.162q-.322,1.058-.69,1.058-.552.184-.552,2.668a7.155,7.155,0,0,1-.92,3.588,2.333,2.333,0,0,1-1.932,1.288ZM16.744-10.12a22.475,22.475,0,0,0,5.566-1.426,19.439,19.439,0,0,0,5.842-2.806,15.932,15.932,0,0,0,3.128-3.542,7.063,7.063,0,0,0,1.2-3.818,4.581,4.581,0,0,0-.828-2.668,2.412,2.412,0,0,0-2.208-1.012A9.982,9.982,0,0,0,25.07-24.1a18.286,18.286,0,0,0-4.646,3.4,14.62,14.62,0,0,0-2.944,4.738,13.624,13.624,0,0,0-1.288,4.83Q16.192-10.12,16.744-10.12Zm43.424,6.9A8.072,8.072,0,0,1,54.648-1.2a9.156,9.156,0,0,1-4.37-1.1,9.936,9.936,0,0,1-3.45-3.036A9.552,9.552,0,0,1,45.08-8.648a15.875,15.875,0,0,1-.552-4.508q0-.92.184-3.68a18.108,18.108,0,0,1,2.254-7.084A27.329,27.329,0,0,1,51.888-30.5a17.494,17.494,0,0,1,5.8-4,5.156,5.156,0,0,1,2.668-.92,9.1,9.1,0,0,1,1.288.092q.644.092,1.38.184a10.827,10.827,0,0,1,3.082.782A4.72,4.72,0,0,1,67.9-32.844a7.322,7.322,0,0,1,2.3,5.336,11.035,11.035,0,0,1-2.852,5.06,19.259,19.259,0,0,1-5.98,4.6,11.906,11.906,0,0,1-3.772.552,8,8,0,0,1-4.6-1.2,4.413,4.413,0,0,0-1.288-.276q-.828,0-1.242,1.1a20.591,20.591,0,0,0-.782,4.048,13.91,13.91,0,0,0-.092,1.84q0,4.692,3.128,5.152a16.431,16.431,0,0,0,3.036.46A5.385,5.385,0,0,0,58.236-6.9l1.748-1.012A3.883,3.883,0,0,0,61-8.648l.828-.828q.184-.184.552-.6a2.085,2.085,0,0,1,.69-.552,1.527,1.527,0,0,1,.6-.138,1.318,1.318,0,0,1,.828.414,7.039,7.039,0,0,0,.736.6q.828,0,.368,1.15a8.656,8.656,0,0,1-1.978,2.668A18.986,18.986,0,0,1,60.168-3.22Zm-.092-19.5a9.731,9.731,0,0,0,3.174-2.3,4.552,4.552,0,0,0,1.61-2.76,2.36,2.36,0,0,0-.828-1.84,3.342,3.342,0,0,0-2.3-.736,5.582,5.582,0,0,0-1.656.184A8.239,8.239,0,0,0,57.04-28.2,27.018,27.018,0,0,0,54-24.932Q52.716-23.276,52.992-23q.46.828,3.588.828A9.5,9.5,0,0,0,60.076-22.724ZM81.7-2.668a8.528,8.528,0,0,1-1.656.184,9.961,9.961,0,0,1-2.208-.23q-1.012-.23-1.012-.6a.533.533,0,0,0-.092-.368.533.533,0,0,0-.368-.092q-.092-.092-.552-.46a4.756,4.756,0,0,0-1.1-.644,5.013,5.013,0,0,1-.828-2.76,22.6,22.6,0,0,1,.828-4.876,19.751,19.751,0,0,1,2.76-7.36,53.294,53.294,0,0,1,5.842-8.372,25.463,25.463,0,0,1,6.026-5.52,4.738,4.738,0,0,1,3.5-1.38,6.283,6.283,0,0,1,3.128.828,10.324,10.324,0,0,1,2.714,2.484,16.223,16.223,0,0,1,2.254,3.588,10.341,10.341,0,0,1,.368,2.668,38.913,38.913,0,0,1-.368,4.324,30.71,30.71,0,0,0-.782,4.048,31.633,31.633,0,0,0-.322,4.14,3.664,3.664,0,0,0,.184,2.07,1.128,1.128,0,0,0,1.012.782,2.29,2.29,0,0,0,1.012-.276,4.462,4.462,0,0,1,2.024-.46,2.455,2.455,0,0,1,1.656.552,2.061,2.061,0,0,1,.644,1.656q0,1.656-2.254,3.312A7.329,7.329,0,0,1,99.82-3.772q-1.38,0-2.53-2.162A35.184,35.184,0,0,1,95.036-11.5l-.552-2.116L90.528-9.844,88.412-7.728A22.371,22.371,0,0,0,86.756-5.98Q85.744-4.232,81.7-2.668ZM81.972-8.1A29.151,29.151,0,0,0,87.4-12.6a50.729,50.729,0,0,0,5.336-6.164,18.492,18.492,0,0,0,3.588-7.452,7.831,7.831,0,0,0-1.2-2.208q-.828-1.1-1.472-1.2-1.84,0-3.864,2.116a60.088,60.088,0,0,0-4.784,5.888l-3.036,4.508A25.8,25.8,0,0,0,80.04-13.2a16.576,16.576,0,0,0-1.38,3.818q0,2.024,1.2,2.024A4.177,4.177,0,0,0,81.972-8.1Zm38.456,5.98a13.911,13.911,0,0,1-3.772-.322,6.538,6.538,0,0,1-2.116-1.426,10.7,10.7,0,0,0-1.84-2.76,9.428,9.428,0,0,1-.368-3.036,25.282,25.282,0,0,1,.552-5.014,31.929,31.929,0,0,1,1.472-5.106,12.546,12.546,0,0,0,.6-1.38q.23-.644.322-.828,0-.644,2.346-4a31.688,31.688,0,0,1,3.726-4.646,8.856,8.856,0,0,1,1.978-1.564,13.072,13.072,0,0,1,2.346-1.2,13.689,13.689,0,0,1,4.508-.92,5.456,5.456,0,0,1,4.508,2.484,6.245,6.245,0,0,1,2.024,4.508,8.4,8.4,0,0,1-.276,2.024q-.92,3.68-2.668,3.68a3.04,3.04,0,0,1-2.3-1.38,4.444,4.444,0,0,1-.368-1.2,9.1,9.1,0,0,1,.368-1.564,7.753,7.753,0,0,0,.184-1.288,4.721,4.721,0,0,0-.368-1.932q-.368-.828-1.012-.828-2.116,0-5.52,3.68a36.89,36.89,0,0,0-3.082,4.048,28.447,28.447,0,0,0-2.806,4.968q-.92,2.76-1.472,4.508t-.736,2.208a1.792,1.792,0,0,0,.23.644,1.782,1.782,0,0,1,.23.736A1.653,1.653,0,0,0,117.392-8a2.865,2.865,0,0,0,1.012.736,3.957,3.957,0,0,0,2.392.736,8.115,8.115,0,0,0,3.4-.92,17.748,17.748,0,0,0,3.4-2.392l2.208-1.656q.644-.46,1.15-.782t.782-.46q.276-.138.276.046,0,.368.276.368a1.009,1.009,0,0,0,.644-.368,2.538,2.538,0,0,1,2.116-1.1q.736,0,.736.276l-.092.46a1.325,1.325,0,0,0,.46.92,2.858,2.858,0,0,1-.23.966,2.729,2.729,0,0,1-.6.966,10.692,10.692,0,0,1-1.886,1.978q-1.334,1.15-1.794,1.518h-.092q-.46,0-1.288.828A3.859,3.859,0,0,1,127.88-4.6l-.828.414q-.46.23-.46.506a4.661,4.661,0,0,1-2.208,1.242A17.727,17.727,0,0,1,120.428-2.116ZM149.5-2.208a8.465,8.465,0,0,1-4.14-3.082,9.865,9.865,0,0,1-1.2-5.29,31.654,31.654,0,0,1,.276-3.864l.184-3.312a3.583,3.583,0,0,0-.184-1.288,2.854,2.854,0,0,0-.828-1.012l-.92-.92q-.736-.736-.644-1.2l-.092-.46a3.078,3.078,0,0,1,.23-1.2q.23-.552.506-.552a2.717,2.717,0,0,0,.736-.138,1.554,1.554,0,0,1,.828-.046q1.288,0,1.288.552.368.736,1.242.138a5.845,5.845,0,0,0,1.7-2.346,21.19,21.19,0,0,1,3.818-4.278,25.338,25.338,0,0,1,4.186-3.174,8.035,8.035,0,0,1,2.116-.69,12.264,12.264,0,0,1,2.576-.322,5.578,5.578,0,0,1,2.9.736,11.714,11.714,0,0,1,2.53,2.116,4.694,4.694,0,0,1,1.748,4.048,9.521,9.521,0,0,1-.92,3.956q-.368,1.38-2.9,3.5a17.414,17.414,0,0,1-4.646,2.944,24.371,24.371,0,0,1-5.888.644,6.9,6.9,0,0,1-2.852-.368q-1.1-.644-1.564,4.968A13,13,0,0,0,149.5-10.4a5.609,5.609,0,0,0,.46,2.484q.092.092.644.69a4.733,4.733,0,0,0,1.38,1.012,3.858,3.858,0,0,0,1.748.414,3.583,3.583,0,0,0,1.288-.184,5.026,5.026,0,0,0,1.932-1.058q.92-.782,2.576-2.438Q161-10.948,161.644-11.5a1.915,1.915,0,0,1,1.84-.828,7.752,7.752,0,0,1,1.288.184,1.787,1.787,0,0,1,.828,1.38A8.544,8.544,0,0,1,164.68-8a10.3,10.3,0,0,1-2.254,2.53,29.046,29.046,0,0,1-3.174,2.53,11.771,11.771,0,0,1-5.7,1.564A12.184,12.184,0,0,1,149.5-2.208Zm5.428-18.676q.92-.184,2.668-.46a5.813,5.813,0,0,0,2.9-1.242,15.9,15.9,0,0,0,2.714-3.358,4.167,4.167,0,0,0,.276-1.472,2.693,2.693,0,0,0-.552-1.932,2.026,2.026,0,0,0-1.472-.644,4.325,4.325,0,0,0-2.668,1.1,8.333,8.333,0,0,0-2.714,2.024A30.856,30.856,0,0,0,153-23.414q-1.288,1.7-.828,1.978-.184.276.92.414A15.315,15.315,0,0,0,154.928-20.884Zm46.644,19.5a3.527,3.527,0,0,1-1.748-.368,13.934,13.934,0,0,1-1.84-1.38q-3.036-3.22-3.036-5.888a3.228,3.228,0,0,1,.092-.92,2.738,2.738,0,0,0,.23-1.288q-.046-.644-.046-.828-.368-.368-.368-.506a.371.371,0,0,1,.184-.276.913.913,0,0,0,.276-.322q.552,0,.368-1.012a7.585,7.585,0,0,1,.736-3.266,22.618,22.618,0,0,1,2.3-4.646,43.105,43.105,0,0,1,2.99-4.14,25.642,25.642,0,0,1,3.542-3.772,21.407,21.407,0,0,1,3.956-2.852,15.174,15.174,0,0,1,3.864-1.38,12.793,12.793,0,0,1,2.484-.46,2.1,2.1,0,0,1,1.15.322,8.749,8.749,0,0,1,1.334,1.15,7.079,7.079,0,0,1,3.45,2.806,11.111,11.111,0,0,1,.966,5.29q0,5.98-4.876,12.972A25.874,25.874,0,0,1,213.624-7.5a35.221,35.221,0,0,1-4.876,3.45,15.614,15.614,0,0,1-3.542,1.978A11.962,11.962,0,0,1,201.572-1.38Zm8.832-9.752a32.462,32.462,0,0,0,3.542-4.692,30.554,30.554,0,0,0,2.53-5.612,13.493,13.493,0,0,0,.46-3.772q0-2.76-.736-3.128a4.083,4.083,0,0,0-1.84-.46,6.739,6.739,0,0,0-4.232,1.84,24.965,24.965,0,0,0-4.784,5.658,66.317,66.317,0,0,0-4.324,8.326A8.739,8.739,0,0,0,200.1-9.2a3.338,3.338,0,0,0,.69,2.208,2.324,2.324,0,0,0,1.886.828Q205.712-6.164,210.4-11.132ZM264.96-57.776a3.23,3.23,0,0,1,.46,1.748,7.766,7.766,0,0,1-.46,2.53,9.53,9.53,0,0,1-1.012,2.162,16.3,16.3,0,0,1-2.208,2.53q-1.472,1.426-1.932,1.426a1.6,1.6,0,0,1-.92-.322,3.164,3.164,0,0,0-.736-.414.652.652,0,0,1-.46-.644,2.885,2.885,0,0,1,.552-1.334q.552-.874.828-1.242a6.074,6.074,0,0,0,1.38-3.312,7.754,7.754,0,0,0-.184-1.288,1.579,1.579,0,0,0-.644-.092,5.844,5.844,0,0,0-2.024.46,19.525,19.525,0,0,0-4.692,3.772,14.331,14.331,0,0,0-2.806,3.4q-1.15,1.932-2.07,3.818t-1.288,2.622q-2.3,5.06-2.852,6.44-.46,1.2-1.2,2.714a9.827,9.827,0,0,0-.736,1.7q-.184.368-.046.506a1.316,1.316,0,0,0,.782.138q1.1,0,2.024-.092a37.715,37.715,0,0,1,5.152-.368,8.114,8.114,0,0,1,2.944.414,2.059,2.059,0,0,1,1.288,1.334,2.917,2.917,0,0,1,.644,1.564q0,.828-1.2,1.2a34.155,34.155,0,0,1-4.508.828l-2.576.368q-1.656.092-2.944.138t-1.932.138a3.937,3.937,0,0,0-.414.046q-.322.046-.6.552a7.4,7.4,0,0,0-.552,1.518,8.162,8.162,0,0,1-.092,1.242q-.092.6-.184,1.058a25.886,25.886,0,0,0-.368,2.852,7.063,7.063,0,0,0-.368,1.288q-.092.552-.184.92a6.5,6.5,0,0,1-.552,2.208Q238-10.4,237.544-3.772q-.276,5.244-.644,7.866a8.854,8.854,0,0,1-1.38,4q-1.656,1.84-2.576,1.1a4.827,4.827,0,0,1-1.38-.69q-.736-.506-.736-.874.092-.46.276-1.058t.276-1.058a9.093,9.093,0,0,0,.184-2.208q.092-.736.138-1.794t.138-2.806q.552-7.268,1.012-10.58T234.6-20.7a15.2,15.2,0,0,0,.184-2.484,2.722,2.722,0,0,0-.368-1.7,1.81,1.81,0,0,0-1.2-.506,13.031,13.031,0,0,1-3.266-.644,2.216,2.216,0,0,1-1.518-1.472,1.477,1.477,0,0,1-.644-1.012q0-.828,1.518-1.242a11.954,11.954,0,0,1,3.634-.322q.368,0,1.794-.092a2.482,2.482,0,0,0,2.024-.966,10.159,10.159,0,0,0,1.15-2.806q.276-1.012,1.012-3.22t1.012-2.944a1.9,1.9,0,0,0,.552-.736,2.17,2.17,0,0,0,.276-.92,9.1,9.1,0,0,1,1.15-3.22q1.058-2.024,3.818-6.348a44.464,44.464,0,0,1,5.888-6.532,11.687,11.687,0,0,1,5.7-2.668,3.389,3.389,0,0,1,1.794-.23q1.426.046,1.61.046a4.871,4.871,0,0,1,2.576.644A7.118,7.118,0,0,1,264.96-57.776ZM318.228-3.864a5.2,5.2,0,0,1-2.438-2.254q-1.15-1.794-1.15-5.842l.092-4.232a6.122,6.122,0,0,0-.138-1.564q-.138-.46-.506-.46-1.2,0-5.106,3.128a70.164,70.164,0,0,0-7.866,7.452q-.46.46-1.242,1.334a7.365,7.365,0,0,1-1.426,1.288,2.246,2.246,0,0,1-1.2.414,2.343,2.343,0,0,1-1.564-.644l-1.012-.828a1.655,1.655,0,0,1-.644-1.288l.184-.828,2.116-6.072q2.024-4.692,2.392-5.934t-.092-1.15a7.112,7.112,0,0,0-2.3.874,4.209,4.209,0,0,0-1.84,1.518q-.184,0-1.2.966a11.558,11.558,0,0,1-1.748,1.426,38.532,38.532,0,0,1-4.048,4.324l-2.208,2.116a25.7,25.7,0,0,0-3.864,4.508,7.21,7.21,0,0,1-1.472,1.656,3.381,3.381,0,0,1-3.588-2.76A3.527,3.527,0,0,1,276-8.464a33.692,33.692,0,0,1,1.1-6.072q.828-3.128.92-3.864l.46-1.84a13.974,13.974,0,0,1,.828-2.852q.644-1.656,2.208-5.244a12.851,12.851,0,0,0,.92-3.864,2.324,2.324,0,0,1,.828-1.886,2.8,2.8,0,0,1,1.84-.69,2.882,2.882,0,0,1,2.208,1.012,3.813,3.813,0,0,1,.92,2.668,7.9,7.9,0,0,1-.736,3.22l-1.012,2.484a45.186,45.186,0,0,0-1.886,4.738,27.306,27.306,0,0,0-1.15,3.634q.092.276.644-.138t1.288-1.058a18.017,18.017,0,0,1,1.932-1.656,43.324,43.324,0,0,1,6.578-4.968,29.047,29.047,0,0,1,5.842-3.036,3.9,3.9,0,0,1,1.794.322,5.587,5.587,0,0,1,1.334,1.1q.736.782,1.1,1.15a3.239,3.239,0,0,1,.828,2.392,5.17,5.17,0,0,1-.184,1.2q-.368,1.288-.966,3.128t-.874,2.668q.644-.552,2.3-1.932t3.036-2.576q4.6-3.588,7.268-3.588a3.972,3.972,0,0,1,3.312,2.024,3.452,3.452,0,0,1,1.012,1.7,11.875,11.875,0,0,1,.184,2.346v2.3a17.963,17.963,0,0,1,.092,2.208q.092.736.23,2.852a5.734,5.734,0,0,0,.414,2.392q.46.552,3.128,1.012Q325.4-6.9,325.4-5.7q0,.828-1.2,1.656a5.518,5.518,0,0,1-2.944.736A8.1,8.1,0,0,1,318.228-3.864Zm25.208-35.7a.8.8,0,0,1-.552.276,2.686,2.686,0,0,1-1.2-.552,4.839,4.839,0,0,1-2.438-1.61q-1.518-1.518-1.518-1.978a9.225,9.225,0,0,1,.552-3.956,2.867,2.867,0,0,1,2.668-2.208,2.717,2.717,0,0,1,.736.138q.46.138,1.564.6l.782,1.564a13.827,13.827,0,0,1,.92,2.3,7.278,7.278,0,0,1,.322,2.024A3.828,3.828,0,0,1,343.436-39.56ZM333.04-2.852A2.961,2.961,0,0,1,330.6-4.6a8.447,8.447,0,0,1-1.242-3.5q.368-3.5.552-4.968.736-3.4,2.346-9.338t1.978-6.67a.9.9,0,0,1,.828-.46,2.438,2.438,0,0,1,1.2.368,5.193,5.193,0,0,1,1.1.828,3.812,3.812,0,0,1,.736,2.3q0,1.932-1.84,8.1-1.288,4.6-1.656,6.532a18.077,18.077,0,0,0-.276,4.14q-.092.644-.322,2.162a8.481,8.481,0,0,1-.414,1.886A.589.589,0,0,1,333.04-2.852ZM373.98-1.1q-1.38,0-2.806-2.162a7.743,7.743,0,0,1-1.426-4.278,35.51,35.51,0,0,1,.69-5.29q.69-3.818,1.7-7.5a8.755,8.755,0,0,0,.552-2.392q0-.46-.368-.46a8.066,8.066,0,0,0-2.208,1.1,14.393,14.393,0,0,0-4.048,2.852q-.46.368-1.472,1.288a16.021,16.021,0,0,1-1.84,1.472q-1.748,1.38-4.646,4T353.372-8a1.713,1.713,0,0,1-1.564,1.012,2.92,2.92,0,0,1-.828-.184,3.7,3.7,0,0,1-1.932-1.242,3.129,3.129,0,0,1-.828-2.07,22.7,22.7,0,0,1,1.61-5.8q1.61-4.416,4-9.66a6.993,6.993,0,0,0,.644-1.886,10.833,10.833,0,0,0,.276-2.346,4.727,4.727,0,0,1,.276-1.472,3.069,3.069,0,0,1,.644-1.2.9.9,0,0,1,.828-.46,2.377,2.377,0,0,1,2.024,1.38,4.585,4.585,0,0,1,1.472,3.5,13.8,13.8,0,0,1-1.012,4.508q-.644,1.288-.966,2.07t-.414,1.058A11.771,11.771,0,0,0,360-22.08l2.3-1.38,2.76-2.116a11.127,11.127,0,0,1,2.392-1.656,2.17,2.17,0,0,0,.92-.276,3.5,3.5,0,0,0,.92-.644,1.6,1.6,0,0,1,.506-.368,1.055,1.055,0,0,1,.322-.092,2.766,2.766,0,0,0,.46-.092,1.365,1.365,0,0,0,.644-.368,1.8,1.8,0,0,1,1.288-.368,4.733,4.733,0,0,1,2.576.828,2.286,2.286,0,0,1,1.288,1.84.792.792,0,0,0,.184.506q.184.23.276.322.368,0,.644.966a8.637,8.637,0,0,1,.276,2.346,10.874,10.874,0,0,1-.46,3.4,11.709,11.709,0,0,1-.368,2.576q-.368,1.564-.46,2.024l-.552,2.392a20.53,20.53,0,0,0-1.2,6.072,4.783,4.783,0,0,0,.736,2.852,1.633,1.633,0,0,1,.184.736,1.481,1.481,0,0,1-.414,1.012A1.587,1.587,0,0,1,373.98-1.1Zm33.4.828a2.9,2.9,0,0,1-1.1.276,1.789,1.789,0,0,1-.92-.368q-.552-.368-1.38-1.012a5.083,5.083,0,0,1-.782-1.84,24.949,24.949,0,0,1-.138-3.312,67.359,67.359,0,0,1,2.116-9.154,87.194,87.194,0,0,1,2.668-8.51,7.1,7.1,0,0,0,.368-2.024.972.972,0,0,0-.46-.966,6.841,6.841,0,0,0-1.84-.414,8.064,8.064,0,0,0-6.3,2.116,34.615,34.615,0,0,0-6.21,7.728q-2.944,4.6-2.944,8a3.76,3.76,0,0,0,.184,1.2q.276.736,1.472.736a7.566,7.566,0,0,0,2.07-.368,9.36,9.36,0,0,0,2.162-.92q.552-.276,3.5-1.564a.9.9,0,0,1,.782.322,2.316,2.316,0,0,1,.23,1.242q0,.736.92,1.1.368.46-1.1,1.7a31.42,31.42,0,0,1-4.324,2.9,15.521,15.521,0,0,1-4.14.644,6.283,6.283,0,0,1-3.588-1.2q-3.036-1.748-3.036-6.256a23.922,23.922,0,0,1,1.564-7.544,30.04,30.04,0,0,1,3.45-6.21,58.862,58.862,0,0,1,4.922-5.658,9.294,9.294,0,0,1,1.886-1.242,17.624,17.624,0,0,1,3.174-1.334,17.039,17.039,0,0,1,4.876-.92,5.325,5.325,0,0,1,2.944.828l1.2.184a1.3,1.3,0,0,0,1.15-.644,21.84,21.84,0,0,0,1.334-2.944l2.3-6.072q.736-1.932,2.254-5.888t2.806-6.992a14.749,14.749,0,0,0,1.058-2.484,4.792,4.792,0,0,1,.69-1.564h1.748a2.793,2.793,0,0,1,1.38.69,3.126,3.126,0,0,1,1.2,1.7,17.9,17.9,0,0,1-.828,3.91,57.069,57.069,0,0,1-2.3,6.394q-.736,1.84-1.2,2.76-3.22,7.636-4.416,11.408L415.1-27.6a14.611,14.611,0,0,0-1.288,3.4,30.874,30.874,0,0,1-1.472,4.646q-.828,1.978-.92,2.254l-.828,2.484q-1.564,4.508-2.07,6.3a13.327,13.327,0,0,0-.506,3.634A20.585,20.585,0,0,0,408.2-1.84,1.772,1.772,0,0,1,407.376-.276Z" transform="translate(544.034 536.416)" fill="#0f88c7"/>
    </g>
  </g>
</svg>
